<svg width="1100" height="600"><g transform="translate(10,10)"><g><path class="link" d="M31,24.855C465.5,24.855,465.5,24.855,900,24.855" style="stroke-width: 47.7097;"><title>BEES → Boomerang
Value: $150.00M
Source Funding: $150.00M
Target Funding: $7.00M</title></path><path class="link" d="M31,115.961C465.5,115.961,465.5,110.516,900,110.516" style="stroke-width: 19.0839;"><title>Assured Autonomy → ASIMOV
Value: $60.00M
Source Funding: $60.00M
Target Funding: $45.00M</title></path><path class="link" d="M31,190.032C465.5,190.032,465.5,184.129,900,184.129" style="stroke-width: 63.6129;"><title>ANVIL → Colosseum
Value: $200.00M
Source Funding: $200.00M
Target Funding: $30.00M</title></path><path class="link" d="M480.5,375.848C690.25,375.848,690.25,137.552,900,137.552" style="stroke-width: 9.54194;"><title>Arch Study → ASIMOV
Value: $30.00M
Source Funding: $30.00M
Target Funding: $45.00M</title></path><path class="link" d="M31,442.677C465.5,442.677,465.5,384.968,900,384.968" style="stroke-width: 31.8065;"><title>AAiX → CCA
Value: $100.00M
Source Funding: $100.00M
Target Funding: $9561.00M</title></path><path class="link" d="M31,303.403C465.5,303.403,465.5,287.5,900,287.5" style="stroke-width: 143.129;"><title>Golden Horde → Colosseum
Value: $450.00M
Source Funding: $450.00M
Target Funding: $30.00M</title></path><path class="link" d="M31,492.435C465.5,492.435,465.5,434.726,900,434.726" style="stroke-width: 47.7097;"><title>Fight Tonight → Resolute Sentry
Value: $150.00M
Source Funding: $150.00M
Target Funding: $300.00M</title></path><path class="link" d="M31,141.865C465.5,141.865,465.5,126.419,900,126.419" style="stroke-width: 12.7226;"><title>SAFR → ASIMOV
Value: $40.00M
Source Funding: $40.00M
Target Funding: $45.00M</title></path><path class="link" d="M31,72.565C465.5,72.565,465.5,492.435,900,492.435" style="stroke-width: 47.7097;"><title>BEES → Replicator
Value: $150.00M
Source Funding: $150.00M
Target Funding: $1000.00M</title></path><path class="link" d="M31,550.145C465.5,550.145,465.5,550.145,900,550.145" style="stroke-width: 47.7097;"><title>ASTARTE → SESU
Value: $150.00M
Source Funding: $150.00M
Target Funding: $75.00M</title></path><path class="link" d="M31,400.871C240.75,400.871,240.75,386.98,450.5,386.98" style="stroke-width: 31.8065;"><title>Zero → Arch Study
Value: $100.00M
Source Funding: $100.00M
Target Funding: $30.00M</title></path></g><g><g class="node" transform="translate(1,1)"><rect class="in-bar" x="0" height="0" width="15" fill="#4e79a7" opacity="0.7"></rect><rect class="out-bar" x="15" height="95.4193548387097" width="15" fill="rgb(65, 101, 140)" opacity="0.7"></rect><text x="36" y="47.70967741935485" dy="0.35em" text-anchor="start">BEES</text><title>BEES
Total Funding In: $0.00M
Total Funding Out: $300.00M
Target Funding: $0.00M</title></g><g class="node" transform="translate(900,1)"><rect class="in-bar" x="0" height="47.70967741935482" width="15" fill="#4e79a7" opacity="0.7"></rect><rect class="out-bar" x="15" height="0" width="15" fill="rgb(65, 101, 140)" opacity="0.7"></rect><rect class="out-bar-segment" x="15" y="45.48322580645159" height="2.226451612903225" width="15" fill="rgb(65, 101, 140)" opacity="0.7"></rect><text x="-6" y="23.85483870967741" dy="0.35em" text-anchor="end">Boomerang</text><title>Boomerang
Total Funding In: $150.00M
Total Funding Out: $0.00M
Target Funding: $7.00M</title></g><g class="node" transform="translate(1,106.4193548387097)"><rect class="in-bar" x="0" height="0" width="15" fill="#f28e2c" opacity="0.7"></rect><rect class="out-bar" x="15" height="19.08387096774193" width="15" fill="rgb(202, 119, 37)" opacity="0.7"></rect><text x="36" y="9.541935483870965" dy="0.35em" text-anchor="start">Assured Autonomy</text><title>Assured Autonomy
Total Funding In: $0.00M
Total Funding Out: $60.00M
Target Funding: $0.00M</title></g><g class="node" transform="translate(900,100.97419354838703)"><rect class="in-bar" x="0" height="41.348387096774246" width="15" fill="#f28e2c" opacity="0.7"></rect><rect class="out-bar" x="15" height="0" width="15" fill="rgb(202, 119, 37)" opacity="0.7"></rect><rect class="out-bar-segment" x="15" y="27.035483870967777" height="14.312903225806469" width="15" fill="rgb(202, 119, 37)" opacity="0.7"></rect><text x="-6" y="20.674193548387123" dy="0.35em" text-anchor="end">ASIMOV</text><title>ASIMOV
Total Funding In: $130.00M
Total Funding Out: $0.00M
Target Funding: $45.00M</title></g><g class="node" transform="translate(1,158.2258064516129)"><rect class="in-bar" x="0" height="0" width="15" fill="#e15759" opacity="0.7"></rect><rect class="out-bar" x="15" height="63.612903225806434" width="15" fill="rgb(188, 73, 74)" opacity="0.7"></rect><text x="36" y="31.806451612903217" dy="0.35em" text-anchor="start">ANVIL</text><title>ANVIL
Total Funding In: $0.00M
Total Funding Out: $200.00M
Target Funding: $0.00M</title></g><g class="node" transform="translate(900,152.32258064516128)"><rect class="in-bar" x="0" height="206.74193548387092" width="15" fill="#e15759" opacity="0.7"></rect><rect class="out-bar" x="15" height="0" width="15" fill="rgb(188, 73, 74)" opacity="0.7"></rect><rect class="out-bar-segment" x="15" y="197.19999999999996" height="9.541935483870965" width="15" fill="rgb(188, 73, 74)" opacity="0.7"></rect><text x="-6" y="103.37096774193546" dy="0.35em" text-anchor="end">Colosseum</text><title>Colosseum
Total Funding In: $650.00M
Total Funding Out: $0.00M
Target Funding: $30.00M</title></g><g class="node" transform="translate(450.5,371.07666007943874)"><rect class="in-bar" x="0" height="31.806451612903288" width="15" fill="#f28e2c" opacity="0.7"></rect><rect class="out-bar" x="15" height="9.541935483870986" width="15" fill="rgb(202, 119, 37)" opacity="0.7"></rect><text x="36" y="15.903225806451644" dy="0.35em" text-anchor="start">Arch Study</text><title>Arch Study
Total Funding In: $100.00M
Total Funding Out: $30.00M
Target Funding: $30.00M</title></g><g class="node" transform="translate(1,426.77419354838696)"><rect class="in-bar" x="0" height="0" width="15" fill="#59a14f" opacity="0.7"></rect><rect class="out-bar" x="15" height="31.806451612903288" width="15" fill="rgb(74, 135, 66)" opacity="0.7"></rect><text x="36" y="15.903225806451644" dy="0.35em" text-anchor="start">AAiX</text><title>AAiX
Total Funding In: $0.00M
Total Funding Out: $100.00M
Target Funding: $0.00M</title></g><g class="node" transform="translate(900,369.0645161290322)"><rect class="in-bar" x="0" height="31.806451612903288" width="15" fill="#59a14f" opacity="0.7"></rect><rect class="out-bar" x="15" height="0" width="15" fill="rgb(74, 135, 66)" opacity="0.7"></rect><rect class="out-bar-segment" x="15" y="0" height="31.806451612903288" width="15" fill="rgb(74, 135, 66)" opacity="0.7"></rect><rect class="out-bar-segment" x="45" y="0" height="31.806451612903288" width="15" fill="rgb(74, 135, 66)" opacity="0.7"></rect><rect class="out-bar-segment" x="75" y="0" height="31.806451612903288" width="15" fill="rgb(74, 135, 66)" opacity="0.7"></rect><rect class="out-bar-segment" x="105" y="0" height="31.806451612903288" width="15" fill="rgb(74, 135, 66)" opacity="0.7"></rect><rect class="out-bar-segment" x="135" y="0" height="31.806451612903288" width="15" fill="rgb(74, 135, 66)" opacity="0.7"></rect><rect class="out-bar-segment" x="165" y="0" height="31.806451612903288" width="15" fill="rgb(74, 135, 66)" opacity="0.7"></rect><rect class="out-bar-segment" x="195" y="0" height="31.806451612903288" width="15" fill="rgb(74, 135, 66)" opacity="0.7"></rect><rect class="out-bar-segment" x="225" y="0" height="31.806451612903288" width="15" fill="rgb(74, 135, 66)" opacity="0.7"></rect><rect class="out-bar-segment" x="255" y="0" height="31.806451612903288" width="15" fill="rgb(74, 135, 66)" opacity="0.7"></rect><rect class="out-bar-segment" x="285" y="0" height="31.806451612903288" width="15" fill="rgb(74, 135, 66)" opacity="0.7"></rect><rect class="out-bar-segment" x="315" y="0" height="31.806451612903288" width="15" fill="rgb(74, 135, 66)" opacity="0.7"></rect><rect class="out-bar-segment" x="345" y="0" height="31.806451612903288" width="15" fill="rgb(74, 135, 66)" opacity="0.7"></rect><rect class="out-bar-segment" x="375" y="0" height="31.806451612903288" width="15" fill="rgb(74, 135, 66)" opacity="0.7"></rect><rect class="out-bar-segment" x="405" y="0" height="31.806451612903288" width="15" fill="rgb(74, 135, 66)" opacity="0.7"></rect><rect class="out-bar-segment" x="435" y="0" height="31.806451612903288" width="15" fill="rgb(74, 135, 66)" opacity="0.7"></rect><rect class="out-bar-segment" x="465" y="0" height="31.806451612903288" width="15" fill="rgb(74, 135, 66)" opacity="0.7"></rect><rect class="out-bar-segment" x="495" y="0" height="31.806451612903288" width="15" fill="rgb(74, 135, 66)" opacity="0.7"></rect><rect class="out-bar-segment" x="525" y="0" height="31.806451612903288" width="15" fill="rgb(74, 135, 66)" opacity="0.7"></rect><rect class="out-bar-segment" x="555" y="0" height="31.806451612903288" width="15" fill="rgb(74, 135, 66)" opacity="0.7"></rect><rect class="out-bar-segment" x="585" y="0" height="31.806451612903288" width="15" fill="rgb(74, 135, 66)" opacity="0.7"></rect><rect class="out-bar-segment" x="615" y="0" height="31.806451612903288" width="15" fill="rgb(74, 135, 66)" opacity="0.7"></rect><rect class="out-bar-segment" x="645" y="0" height="31.806451612903288" width="15" fill="rgb(74, 135, 66)" opacity="0.7"></rect><rect class="out-bar-segment" x="675" y="0" height="31.806451612903288" width="15" fill="rgb(74, 135, 66)" opacity="0.7"></rect><rect class="out-bar-segment" x="705" y="0" height="31.806451612903288" width="15" fill="rgb(74, 135, 66)" opacity="0.7"></rect><rect class="out-bar-segment" x="735" y="0" height="31.806451612903288" width="15" fill="rgb(74, 135, 66)" opacity="0.7"></rect><rect class="out-bar-segment" x="765" y="0" height="31.806451612903288" width="15" fill="rgb(74, 135, 66)" opacity="0.7"></rect><rect class="out-bar-segment" x="795" y="0" height="31.806451612903288" width="15" fill="rgb(74, 135, 66)" opacity="0.7"></rect><rect class="out-bar-segment" x="825" y="0" height="31.806451612903288" width="15" fill="rgb(74, 135, 66)" opacity="0.7"></rect><rect class="out-bar-segment" x="855" y="0" height="31.806451612903288" width="15" fill="rgb(74, 135, 66)" opacity="0.7"></rect><rect class="out-bar-segment" x="885" y="0" height="31.806451612903288" width="15" fill="rgb(74, 135, 66)" opacity="0.7"></rect><rect class="out-bar-segment" x="915" y="0" height="31.806451612903288" width="15" fill="rgb(74, 135, 66)" opacity="0.7"></rect><rect class="out-bar-segment" x="945" y="0" height="31.806451612903288" width="15" fill="rgb(74, 135, 66)" opacity="0.7"></rect><rect class="out-bar-segment" x="975" y="0" height="31.806451612903288" width="15" fill="rgb(74, 135, 66)" opacity="0.7"></rect><rect class="out-bar-segment" x="1005" y="0" height="31.806451612903288" width="15" fill="rgb(74, 135, 66)" opacity="0.7"></rect><rect class="out-bar-segment" x="1035" y="0" height="31.806451612903288" width="15" fill="rgb(74, 135, 66)" opacity="0.7"></rect><rect class="out-bar-segment" x="1065" y="0" height="31.806451612903288" width="15" fill="rgb(74, 135, 66)" opacity="0.7"></rect><rect class="out-bar-segment" x="1095" y="0" height="31.806451612903288" width="15" fill="rgb(74, 135, 66)" opacity="0.7"></rect><rect class="out-bar-segment" x="1125" y="0" height="31.806451612903288" width="15" fill="rgb(74, 135, 66)" opacity="0.7"></rect><rect class="out-bar-segment" x="1155" y="0" height="31.806451612903288" width="15" fill="rgb(74, 135, 66)" opacity="0.7"></rect><rect class="out-bar-segment" x="1185" y="0" height="31.806451612903288" width="15" fill="rgb(74, 135, 66)" opacity="0.7"></rect><rect class="out-bar-segment" x="1215" y="0" height="31.806451612903288" width="15" fill="rgb(74, 135, 66)" opacity="0.7"></rect><rect class="out-bar-segment" x="1245" y="0" height="31.806451612903288" width="15" fill="rgb(74, 135, 66)" opacity="0.7"></rect><rect class="out-bar-segment" x="1275" y="0" height="31.806451612903288" width="15" fill="rgb(74, 135, 66)" opacity="0.7"></rect><rect class="out-bar-segment" x="1305" y="0" height="31.806451612903288" width="15" fill="rgb(74, 135, 66)" opacity="0.7"></rect><rect class="out-bar-segment" x="1335" y="0" height="31.806451612903288" width="15" fill="rgb(74, 135, 66)" opacity="0.7"></rect><rect class="out-bar-segment" x="1365" y="0" height="31.806451612903288" width="15" fill="rgb(74, 135, 66)" opacity="0.7"></rect><rect class="out-bar-segment" x="1395" y="0" height="31.806451612903288" width="15" fill="rgb(74, 135, 66)" opacity="0.7"></rect><rect class="out-bar-segment" x="1425" y="0" height="31.806451612903288" width="15" fill="rgb(74, 135, 66)" opacity="0.7"></rect><rect class="out-bar-segment" x="1455" y="0" height="31.806451612903288" width="15" fill="rgb(74, 135, 66)" opacity="0.7"></rect><rect class="out-bar-segment" x="1485" y="0" height="31.806451612903288" width="15" fill="rgb(74, 135, 66)" opacity="0.7"></rect><rect class="out-bar-segment" x="1515" y="0" height="31.806451612903288" width="15" fill="rgb(74, 135, 66)" opacity="0.7"></rect><rect class="out-bar-segment" x="1545" y="0" height="31.806451612903288" width="15" fill="rgb(74, 135, 66)" opacity="0.7"></rect><rect class="out-bar-segment" x="1575" y="0" height="31.806451612903288" width="15" fill="rgb(74, 135, 66)" opacity="0.7"></rect><rect class="out-bar-segment" x="1605" y="0" height="31.806451612903288" width="15" fill="rgb(74, 135, 66)" opacity="0.7"></rect><rect class="out-bar-segment" x="1635" y="0" height="31.806451612903288" width="15" fill="rgb(74, 135, 66)" opacity="0.7"></rect><rect class="out-bar-segment" x="1665" y="0" height="31.806451612903288" width="15" fill="rgb(74, 135, 66)" opacity="0.7"></rect><rect class="out-bar-segment" x="1695" y="0" height="31.806451612903288" width="15" fill="rgb(74, 135, 66)" opacity="0.7"></rect><rect class="out-bar-segment" x="1725" y="0" height="31.806451612903288" width="15" fill="rgb(74, 135, 66)" opacity="0.7"></rect><rect class="out-bar-segment" x="1755" y="0" height="31.806451612903288" width="15" fill="rgb(74, 135, 66)" opacity="0.7"></rect><rect class="out-bar-segment" x="1785" y="0" height="31.806451612903288" width="15" fill="rgb(74, 135, 66)" opacity="0.7"></rect><rect class="out-bar-segment" x="1815" y="0" height="31.806451612903288" width="15" fill="rgb(74, 135, 66)" opacity="0.7"></rect><rect class="out-bar-segment" x="1845" y="0" height="31.806451612903288" width="15" fill="rgb(74, 135, 66)" opacity="0.7"></rect><rect class="out-bar-segment" x="1875" y="0" height="31.806451612903288" width="15" fill="rgb(74, 135, 66)" opacity="0.7"></rect><rect class="out-bar-segment" x="1905" y="0" height="31.806451612903288" width="15" fill="rgb(74, 135, 66)" opacity="0.7"></rect><rect class="out-bar-segment" x="1935" y="0" height="31.806451612903288" width="15" fill="rgb(74, 135, 66)" opacity="0.7"></rect><rect class="out-bar-segment" x="1965" y="0" height="31.806451612903288" width="15" fill="rgb(74, 135, 66)" opacity="0.7"></rect><rect class="out-bar-segment" x="1995" y="0" height="31.806451612903288" width="15" fill="rgb(74, 135, 66)" opacity="0.7"></rect><rect class="out-bar-segment" x="2025" y="0" height="31.806451612903288" width="15" fill="rgb(74, 135, 66)" opacity="0.7"></rect><rect class="out-bar-segment" x="2055" y="0" height="31.806451612903288" width="15" fill="rgb(74, 135, 66)" opacity="0.7"></rect><rect class="out-bar-segment" x="2085" y="0" height="31.806451612903288" width="15" fill="rgb(74, 135, 66)" opacity="0.7"></rect><rect class="out-bar-segment" x="2115" y="0" height="31.806451612903288" width="15" fill="rgb(74, 135, 66)" opacity="0.7"></rect><rect class="out-bar-segment" x="2145" y="0" height="31.806451612903288" width="15" fill="rgb(74, 135, 66)" opacity="0.7"></rect><rect class="out-bar-segment" x="2175" y="0" height="31.806451612903288" width="15" fill="rgb(74, 135, 66)" opacity="0.7"></rect><rect class="out-bar-segment" x="2205" y="0" height="31.806451612903288" width="15" fill="rgb(74, 135, 66)" opacity="0.7"></rect><rect class="out-bar-segment" x="2235" y="0" height="31.806451612903288" width="15" fill="rgb(74, 135, 66)" opacity="0.7"></rect><rect class="out-bar-segment" x="2265" y="0" height="31.806451612903288" width="15" fill="rgb(74, 135, 66)" opacity="0.7"></rect><rect class="out-bar-segment" x="2295" y="0" height="31.806451612903288" width="15" fill="rgb(74, 135, 66)" opacity="0.7"></rect><rect class="out-bar-segment" x="2325" y="0" height="31.806451612903288" width="15" fill="rgb(74, 135, 66)" opacity="0.7"></rect><rect class="out-bar-segment" x="2355" y="0" height="31.806451612903288" width="15" fill="rgb(74, 135, 66)" opacity="0.7"></rect><rect class="out-bar-segment" x="2385" y="0" height="31.806451612903288" width="15" fill="rgb(74, 135, 66)" opacity="0.7"></rect><rect class="out-bar-segment" x="2415" y="0" height="31.806451612903288" width="15" fill="rgb(74, 135, 66)" opacity="0.7"></rect><rect class="out-bar-segment" x="2445" y="0" height="31.806451612903288" width="15" fill="rgb(74, 135, 66)" opacity="0.7"></rect><rect class="out-bar-segment" x="2475" y="0" height="31.806451612903288" width="15" fill="rgb(74, 135, 66)" opacity="0.7"></rect><rect class="out-bar-segment" x="2505" y="0" height="31.806451612903288" width="15" fill="rgb(74, 135, 66)" opacity="0.7"></rect><rect class="out-bar-segment" x="2535" y="0" height="31.806451612903288" width="15" fill="rgb(74, 135, 66)" opacity="0.7"></rect><rect class="out-bar-segment" x="2565" y="0" height="31.806451612903288" width="15" fill="rgb(74, 135, 66)" opacity="0.7"></rect><rect class="out-bar-segment" x="2595" y="0" height="31.806451612903288" width="15" fill="rgb(74, 135, 66)" opacity="0.7"></rect><rect class="out-bar-segment" x="2625" y="0" height="31.806451612903288" width="15" fill="rgb(74, 135, 66)" opacity="0.7"></rect><rect class="out-bar-segment" x="2655" y="0" height="31.806451612903288" width="15" fill="rgb(74, 135, 66)" opacity="0.7"></rect><rect class="out-bar-segment" x="2685" y="0" height="31.806451612903288" width="15" fill="rgb(74, 135, 66)" opacity="0.7"></rect><rect class="out-bar-segment" x="2715" y="0" height="31.806451612903288" width="15" fill="rgb(74, 135, 66)" opacity="0.7"></rect><rect class="out-bar-segment" x="2745" y="0" height="31.806451612903288" width="15" fill="rgb(74, 135, 66)" opacity="0.7"></rect><rect class="out-bar-segment" x="2775" y="0" height="31.806451612903288" width="15" fill="rgb(74, 135, 66)" opacity="0.7"></rect><rect class="out-bar-segment" x="2805" y="0" height="31.806451612903288" width="15" fill="rgb(74, 135, 66)" opacity="0.7"></rect><rect class="out-bar-segment" x="2835" y="0" height="31.806451612903288" width="15" fill="rgb(74, 135, 66)" opacity="0.7"></rect><rect class="out-bar-segment" x="2865" y="12.404516129032231" height="19.401935483871057" width="15" fill="rgb(74, 135, 66)" opacity="0.7"></rect><text x="-6" y="15.903225806451644" dy="0.35em" text-anchor="end">CCA</text><title>CCA
Total Funding In: $100.00M
Total Funding Out: $0.00M
Target Funding: $9561.00M</title></g><g class="node" transform="translate(1,231.83870967741933)"><rect class="in-bar" x="0" height="0" width="15" fill="#e15759" opacity="0.7"></rect><rect class="out-bar" x="15" height="143.12903225806446" width="15" fill="rgb(188, 73, 74)" opacity="0.7"></rect><text x="36" y="71.56451612903223" dy="0.35em" text-anchor="start">Golden Horde</text><title>Golden Horde
Total Funding In: $0.00M
Total Funding Out: $450.00M
Target Funding: $0.00M</title></g><g class="node" transform="translate(1,468.58064516129025)"><rect class="in-bar" x="0" height="0" width="15" fill="#edc949" opacity="0.7"></rect><rect class="out-bar" x="15" height="47.709677419354875" width="15" fill="rgb(198, 168, 61)" opacity="0.7"></rect><text x="36" y="23.854838709677438" dy="0.35em" text-anchor="start">Fight Tonight</text><title>Fight Tonight
Total Funding In: $0.00M
Total Funding Out: $150.00M
Target Funding: $0.00M</title></g><g class="node" transform="translate(900,410.8709677419355)"><rect class="in-bar" x="0" height="47.709677419354875" width="15" fill="#edc949" opacity="0.7"></rect><rect class="out-bar" x="15" height="0" width="15" fill="rgb(198, 168, 61)" opacity="0.7"></rect><rect class="out-bar-segment" x="15" y="0" height="47.709677419354875" width="15" fill="rgb(198, 168, 61)" opacity="0.7"></rect><rect class="out-bar-segment" x="45" y="0" height="47.709677419354875" width="15" fill="rgb(198, 168, 61)" opacity="0.7"></rect><text x="-6" y="23.854838709677438" dy="0.35em" text-anchor="end">Resolute Sentry</text><title>Resolute Sentry
Total Funding In: $150.00M
Total Funding Out: $0.00M
Target Funding: $300.00M</title></g><g class="node" transform="translate(1,135.5032258064516)"><rect class="in-bar" x="0" height="0" width="15" fill="#f28e2c" opacity="0.7"></rect><rect class="out-bar" x="15" height="12.722580645161287" width="15" fill="rgb(202, 119, 37)" opacity="0.7"></rect><text x="36" y="6.361290322580643" dy="0.35em" text-anchor="start">SAFR</text><title>SAFR
Total Funding In: $0.00M
Total Funding Out: $40.00M
Target Funding: $0.00M</title></g><g class="node" transform="translate(900,468.58064516129036)"><rect class="in-bar" x="0" height="47.70967741935476" width="15" fill="#af7aa1" opacity="0.7"></rect><rect class="out-bar" x="15" height="0" width="15" fill="rgb(146, 102, 135)" opacity="0.7"></rect><rect class="out-bar-segment" x="15" y="0" height="47.70967741935476" width="15" fill="rgb(146, 102, 135)" opacity="0.7"></rect><rect class="out-bar-segment" x="45" y="0" height="47.70967741935476" width="15" fill="rgb(146, 102, 135)" opacity="0.7"></rect><rect class="out-bar-segment" x="75" y="0" height="47.70967741935476" width="15" fill="rgb(146, 102, 135)" opacity="0.7"></rect><rect class="out-bar-segment" x="105" y="0" height="47.70967741935476" width="15" fill="rgb(146, 102, 135)" opacity="0.7"></rect><rect class="out-bar-segment" x="135" y="0" height="47.70967741935476" width="15" fill="rgb(146, 102, 135)" opacity="0.7"></rect><rect class="out-bar-segment" x="165" y="0" height="47.70967741935476" width="15" fill="rgb(146, 102, 135)" opacity="0.7"></rect><rect class="out-bar-segment" x="195" y="15.903225806451587" height="31.806451612903174" width="15" fill="rgb(146, 102, 135)" opacity="0.7"></rect><text x="-6" y="23.85483870967738" dy="0.35em" text-anchor="end">Replicator</text><title>Replicator
Total Funding In: $150.00M
Total Funding Out: $0.00M
Target Funding: $1000.00M</title></g><g class="node" transform="translate(1,526.2903225806451)"><rect class="in-bar" x="0" height="0" width="15" fill="#ff9da7" opacity="0.7"></rect><rect class="out-bar" x="15" height="47.709677419354875" width="15" fill="rgb(213, 131, 140)" opacity="0.7"></rect><text x="36" y="23.854838709677438" dy="0.35em" text-anchor="start">ASTARTE</text><title>ASTARTE
Total Funding In: $0.00M
Total Funding Out: $150.00M
Target Funding: $0.00M</title></g><g class="node" transform="translate(900,526.2903225806451)"><rect class="in-bar" x="0" height="47.709677419354875" width="15" fill="#ff9da7" opacity="0.7"></rect><rect class="out-bar" x="15" height="0" width="15" fill="rgb(213, 131, 140)" opacity="0.7"></rect><rect class="out-bar-segment" x="15" y="23.854838709677438" height="23.854838709677438" width="15" fill="rgb(213, 131, 140)" opacity="0.7"></rect><text x="-6" y="23.854838709677438" dy="0.35em" text-anchor="end">SESU</text><title>SESU
Total Funding In: $150.00M
Total Funding Out: $0.00M
Target Funding: $75.00M</title></g><g class="node" transform="translate(1,384.9677419354838)"><rect class="in-bar" x="0" height="0" width="15" fill="#76b7b2" opacity="0.7"></rect><rect class="out-bar" x="15" height="31.806451612903174" width="15" fill="rgb(99, 153, 149)" opacity="0.7"></rect><text x="36" y="15.903225806451587" dy="0.35em" text-anchor="start">Zero</text><title>Zero
Total Funding In: $0.00M
Total Funding Out: $100.00M
Target Funding: $0.00M</title></g></g></g></svg>