<svg width="1100" height="600"><g transform="translate(10,10)"><g><path class="link" d="M630.333,37.831C765.167,37.831,765.167,35.369,900,35.369" style="stroke-width: 14.3491;"><title>AIR → Venom
Value: $100.00M
Source Funding: $100.00M
Target Funding: $600.00M</title></path><path class="link" d="M31,18.936C315.667,18.936,315.667,48.592,600.333,48.592" style="stroke-width: 35.8727;"><title>Avatar → AIR
Value: $250.00M
Source Funding: $250.00M
Target Funding: $100.00M</title></path><path class="link" d="M31,227.538C165.833,227.538,165.833,244.088,300.667,244.088" style="stroke-width: 57.3963;"><title>CODE → Skyborg
Value: $400.00M
Source Funding: $400.00M
Target Funding: $400.00M</title></path><path class="link" d="M31,276.998C165.833,276.998,165.833,283.548,300.667,283.548" style="stroke-width: 21.5236;"><title>LCASD → Skyborg
Value: $150.00M
Source Funding: $150.00M
Target Funding: $400.00M</title></path><path class="link" d="M31,170.142C465.5,170.142,465.5,167.559,900,167.559" style="stroke-width: 57.3963;"><title>CODE → RAIDER
Value: $400.00M
Source Funding: $400.00M
Target Funding: $80.00M</title></path><path class="link" d="M330.667,180.279C465.5,180.279,465.5,156.21,600.333,156.21" style="stroke-width: 50.2217;"><title>ACE → AIR
Value: $350.00M
Source Funding: $350.00M
Target Funding: $100.00M</title></path><path class="link" d="M31,432.552C465.5,432.552,465.5,408.893,900,408.893" style="stroke-width: 71.7453;"><title>Deathclaw → CCA
Value: $500.00M
Source Funding: $500.00M
Target Funding: $9561.00M</title></path><path class="link" d="M31,489.187C465.5,489.187,465.5,455.527,900,455.527" style="stroke-width: 21.5236;"><title>OBSS → CCA
Value: $150.00M
Source Funding: $150.00M
Target Funding: $9561.00M</title></path><path class="link" d="M31,518.917C465.5,518.917,465.5,475.257,900,475.257" style="stroke-width: 17.9363;"><title>Mayhem → CCA
Value: $125.00M
Source Funding: $125.00M
Target Funding: $9561.00M</title></path><path class="link" d="M330.667,244.088C615.333,244.088,615.333,344.322,900,344.322" style="stroke-width: 57.3963;"><title>Skyborg → CCA
Value: $400.00M
Source Funding: $400.00M
Target Funding: $9561.00M</title></path><path class="link" d="M31,54.047C315.667,54.047,315.667,73.703,600.333,73.703" style="stroke-width: 14.3491;"><title>Vigilant Spirit → AIR
Value: $100.00M
Source Funding: $100.00M
Target Funding: $100.00M</title></path><path class="link" d="M31,368.743C165.833,368.743,165.833,173.104,300.667,173.104" style="stroke-width: 35.8727;"><title>E → ACE
Value: $250.00M
Source Funding: $250.00M
Target Funding: $350.00M</title></path><path class="link" d="M630.333,52.18C765.167,52.18,765.167,308.449,900,308.449" style="stroke-width: 14.3491;"><title>AIR → CCA
Value: $100.00M
Source Funding: $100.00M
Target Funding: $9561.00M</title></path><path class="link" d="M31,81.984C315.667,81.984,315.667,91.64,600.333,91.64" style="stroke-width: 21.5236;"><title>AACO → AIR
Value: $150.00M
Source Funding: $150.00M
Target Funding: $100.00M</title></path><path class="link" d="M31,541.974C465.5,541.974,465.5,488.315,900,488.315" style="stroke-width: 8.17897;"><title>CoSyCo → CCA
Value: $57.00M
Source Funding: $57.00M
Target Funding: $9561.00M</title></path><path class="link" d="M31,565.032C465.5,565.032,465.5,501.373,900,501.373" style="stroke-width: 17.9363;"><title>META → CCA
Value: $125.00M
Source Funding: $125.00M
Target Funding: $9561.00M</title></path><path class="link" d="M31,319.283C165.833,319.283,165.833,315.833,300.667,315.833" style="stroke-width: 43.0472;"><title>Resolute Sentry → Skyborg
Value: $300.00M
Source Funding: $300.00M
Target Funding: $400.00M</title></path><path class="link" d="M31,117.094C315.667,117.094,315.667,116.751,600.333,116.751" style="stroke-width: 28.6981;"><title>OPTIMA → AIR
Value: $200.00M
Source Funding: $200.00M
Target Funding: $100.00M</title></path></g><g><g class="node" transform="translate(600.3333333333334,30.656118172787785)"><rect class="in-bar" x="0" height="150.66518847006665" width="15" fill="#f28e2c" opacity="0.7"></rect><rect class="out-bar" x="15" height="28.698131137155553" width="15" fill="rgb(202, 119, 37)" opacity="0.7"></rect><text x="-6" y="75.33259423503333" dy="0.35em" text-anchor="end">AIR</text><title>AIR
Total Funding In: $1050.00M
Total Funding Out: $200.00M
Target Funding: $100.00M</title></g><g class="node" transform="translate(900,28.194140867470246)"><rect class="in-bar" x="0" height="14.349065568577771" width="15" fill="#f28e2c" opacity="0.7"></rect><rect class="out-bar" x="15" height="0" width="15" fill="rgb(202, 119, 37)" opacity="0.7"></rect><rect class="out-bar-segment" x="15" y="0" height="14.349065568577771" width="15" fill="rgb(202, 119, 37)" opacity="0.7"></rect><rect class="out-bar-segment" x="45" y="0" height="14.349065568577771" width="15" fill="rgb(202, 119, 37)" opacity="0.7"></rect><rect class="out-bar-segment" x="75" y="0" height="14.349065568577771" width="15" fill="rgb(202, 119, 37)" opacity="0.7"></rect><rect class="out-bar-segment" x="105" y="0" height="14.349065568577771" width="15" fill="rgb(202, 119, 37)" opacity="0.7"></rect><rect class="out-bar-segment" x="135" y="0" height="14.349065568577771" width="15" fill="rgb(202, 119, 37)" opacity="0.7"></rect><rect class="out-bar-segment" x="165" y="0" height="14.349065568577771" width="15" fill="rgb(202, 119, 37)" opacity="0.7"></rect><text x="-6" y="7.1745327842888855" dy="0.35em" text-anchor="end">Venom</text><title>Venom
Total Funding In: $100.00M
Total Funding Out: $0.00M
Target Funding: $600.00M</title></g><g class="node" transform="translate(1,1)"><rect class="in-bar" x="0" height="0" width="15" fill="#4e79a7" opacity="0.7"></rect><rect class="out-bar" x="15" height="35.87266392144437" width="15" fill="rgb(65, 101, 140)" opacity="0.7"></rect><text x="36" y="17.936331960722185" dy="0.35em" text-anchor="start">Avatar</text><title>Avatar
Total Funding In: $0.00M
Total Funding Out: $250.00M
Target Funding: $0.00M</title></g><g class="node" transform="translate(1,141.4434589800443)"><rect class="in-bar" x="0" height="0" width="15" fill="#76b7b2" opacity="0.7"></rect><rect class="out-bar" x="15" height="114.79252454862208" width="15" fill="rgb(99, 153, 149)" opacity="0.7"></rect><text x="36" y="57.39626227431104" dy="0.35em" text-anchor="start">CODE</text><title>CODE
Total Funding In: $0.00M
Total Funding Out: $800.00M
Target Funding: $0.00M</title></g><g class="node" transform="translate(300.6666666666667,215.38986302987377)"><rect class="in-bar" x="0" height="121.96705733291094" width="15" fill="#edc949" opacity="0.7"></rect><rect class="out-bar" x="15" height="57.39626227431103" width="15" fill="rgb(198, 168, 61)" opacity="0.7"></rect><text x="36" y="60.98352866645547" dy="0.35em" text-anchor="start">Skyborg</text><title>Skyborg
Total Funding In: $850.00M
Total Funding Out: $400.00M
Target Funding: $400.00M</title></g><g class="node" transform="translate(1,266.2359835286664)"><rect class="in-bar" x="0" height="0" width="15" fill="#e15759" opacity="0.7"></rect><rect class="out-bar" x="15" height="21.523598352866657" width="15" fill="rgb(188, 73, 74)" opacity="0.7"></rect><text x="36" y="10.761799176433328" dy="0.35em" text-anchor="start">LCASD</text><title>LCASD
Total Funding In: $0.00M
Total Funding Out: $150.00M
Target Funding: $0.00M</title></g><g class="node" transform="translate(900,138.86102757542952)"><rect class="in-bar" x="0" height="57.39626227431103" width="15" fill="#76b7b2" opacity="0.7"></rect><rect class="out-bar" x="15" height="0" width="15" fill="rgb(99, 153, 149)" opacity="0.7"></rect><rect class="out-bar-segment" x="15" y="45.91700981944882" height="11.479252454862205" width="15" fill="rgb(99, 153, 149)" opacity="0.7"></rect><text x="-6" y="28.698131137155514" dy="0.35em" text-anchor="end">RAIDER</text><title>RAIDER
Total Funding In: $400.00M
Total Funding Out: $0.00M
Target Funding: $80.00M</title></g><g class="node" transform="translate(300.6666666666667,155.1681335398515)"><rect class="in-bar" x="0" height="35.87266392144447" width="15" fill="#4e79a7" opacity="0.7"></rect><rect class="out-bar" x="15" height="50.221729490022256" width="15" fill="rgb(65, 101, 140)" opacity="0.7"></rect><text x="36" y="25.110864745011128" dy="0.35em" text-anchor="start">ACE</text><title>ACE
Total Funding In: $250.00M
Total Funding Out: $350.00M
Target Funding: $350.00M</title></g><g class="node" transform="translate(1,396.67944250871074)"><rect class="in-bar" x="0" height="0" width="15" fill="#edc949" opacity="0.7"></rect><rect class="out-bar" x="15" height="71.74532784288886" width="15" fill="rgb(198, 168, 61)" opacity="0.7"></rect><text x="36" y="35.87266392144443" dy="0.35em" text-anchor="start">Deathclaw</text><title>Deathclaw
Total Funding In: $0.00M
Total Funding Out: $500.00M
Target Funding: $0.00M</title></g><g class="node" transform="translate(900,301.27491099289597)"><rect class="in-bar" x="0" height="209.065885334178" width="15" fill="#edc949" opacity="0.7"></rect><rect class="out-bar" x="15" height="0" width="15" fill="rgb(198, 168, 61)" opacity="0.7"></rect><rect class="out-bar-segment" x="15" y="0" height="209.065885334178" width="15" fill="rgb(198, 168, 61)" opacity="0.7"></rect><rect class="out-bar-segment" x="45" y="0" height="209.065885334178" width="15" fill="rgb(198, 168, 61)" opacity="0.7"></rect><rect class="out-bar-segment" x="75" y="0" height="209.065885334178" width="15" fill="rgb(198, 168, 61)" opacity="0.7"></rect><rect class="out-bar-segment" x="105" y="0" height="209.065885334178" width="15" fill="rgb(198, 168, 61)" opacity="0.7"></rect><rect class="out-bar-segment" x="135" y="0" height="209.065885334178" width="15" fill="rgb(198, 168, 61)" opacity="0.7"></rect><rect class="out-bar-segment" x="165" y="0" height="209.065885334178" width="15" fill="rgb(198, 168, 61)" opacity="0.7"></rect><rect class="out-bar-segment" x="195" y="91.54703832752614" height="117.51884700665187" width="15" fill="rgb(198, 168, 61)" opacity="0.7"></rect><text x="-6" y="104.532942667089" dy="0.35em" text-anchor="end">CCA</text><title>CCA
Total Funding In: $1457.00M
Total Funding Out: $0.00M
Target Funding: $9561.00M</title></g><g class="node" transform="translate(1,478.4247703515996)"><rect class="in-bar" x="0" height="0" width="15" fill="#edc949" opacity="0.7"></rect><rect class="out-bar" x="15" height="21.523598352866543" width="15" fill="rgb(198, 168, 61)" opacity="0.7"></rect><text x="36" y="10.761799176433271" dy="0.35em" text-anchor="start">OBSS</text><title>OBSS
Total Funding In: $0.00M
Total Funding Out: $150.00M
Target Funding: $0.00M</title></g><g class="node" transform="translate(1,509.94836870446613)"><rect class="in-bar" x="0" height="0" width="15" fill="#edc949" opacity="0.7"></rect><rect class="out-bar" x="15" height="17.936331960722214" width="15" fill="rgb(198, 168, 61)" opacity="0.7"></rect><text x="36" y="8.968165980361107" dy="0.35em" text-anchor="start">Mayhem</text><title>Mayhem
Total Funding In: $0.00M
Total Funding Out: $125.00M
Target Funding: $0.00M</title></g><g class="node" transform="translate(1,46.87266392144437)"><rect class="in-bar" x="0" height="0" width="15" fill="#4e79a7" opacity="0.7"></rect><rect class="out-bar" x="15" height="14.349065568577771" width="15" fill="rgb(65, 101, 140)" opacity="0.7"></rect><text x="36" y="7.1745327842888855" dy="0.35em" text-anchor="start">Vigilant Spirit</text><title>Vigilant Spirit
Total Funding In: $0.00M
Total Funding Out: $100.00M
Target Funding: $0.00M</title></g><g class="node" transform="translate(1,350.80677858726636)"><rect class="in-bar" x="0" height="0" width="15" fill="#59a14f" opacity="0.7"></rect><rect class="out-bar" x="15" height="35.87266392144437" width="15" fill="rgb(74, 135, 66)" opacity="0.7"></rect><text x="36" y="17.936331960722185" dy="0.35em" text-anchor="start">E</text><title>E
Total Funding In: $0.00M
Total Funding Out: $250.00M
Target Funding: $0.00M</title></g><g class="node" transform="translate(1,71.22172949002214)"><rect class="in-bar" x="0" height="0" width="15" fill="#4e79a7" opacity="0.7"></rect><rect class="out-bar" x="15" height="21.523598352866628" width="15" fill="rgb(65, 101, 140)" opacity="0.7"></rect><text x="36" y="10.761799176433314" dy="0.35em" text-anchor="start">AACO</text><title>AACO
Total Funding In: $0.00M
Total Funding Out: $150.00M
Target Funding: $0.00M</title></g><g class="node" transform="translate(1,537.8847006651883)"><rect class="in-bar" x="0" height="0" width="15" fill="#edc949" opacity="0.7"></rect><rect class="out-bar" x="15" height="8.178967374089325" width="15" fill="rgb(198, 168, 61)" opacity="0.7"></rect><text x="36" y="4.0894836870446625" dy="0.35em" text-anchor="start">CoSyCo</text><title>CoSyCo
Total Funding In: $0.00M
Total Funding Out: $57.00M
Target Funding: $0.00M</title></g><g class="node" transform="translate(1,556.0636680392777)"><rect class="in-bar" x="0" height="0" width="15" fill="#edc949" opacity="0.7"></rect><rect class="out-bar" x="15" height="17.936331960722327" width="15" fill="rgb(198, 168, 61)" opacity="0.7"></rect><text x="36" y="8.968165980361164" dy="0.35em" text-anchor="start">META</text><title>META
Total Funding In: $0.00M
Total Funding Out: $125.00M
Target Funding: $0.00M</title></g><g class="node" transform="translate(1,297.75958188153305)"><rect class="in-bar" x="0" height="0" width="15" fill="#e15759" opacity="0.7"></rect><rect class="out-bar" x="15" height="43.04719670573331" width="15" fill="rgb(188, 73, 74)" opacity="0.7"></rect><text x="36" y="21.523598352866657" dy="0.35em" text-anchor="start">Resolute Sentry</text><title>Resolute Sentry
Total Funding In: $0.00M
Total Funding Out: $300.00M
Target Funding: $0.00M</title></g><g class="node" transform="translate(1,102.74532784288877)"><rect class="in-bar" x="0" height="0" width="15" fill="#4e79a7" opacity="0.7"></rect><rect class="out-bar" x="15" height="28.698131137155542" width="15" fill="rgb(65, 101, 140)" opacity="0.7"></rect><text x="36" y="14.349065568577771" dy="0.35em" text-anchor="start">OPTIMA</text><title>OPTIMA
Total Funding In: $0.00M
Total Funding Out: $200.00M
Target Funding: $0.00M</title></g></g></g></svg>