<svg width="1100" height="600"><g transform="translate(10,10)"><g><path class="link" d="M31,72.625C465.5,72.625,465.5,72.625,900,72.625" style="stroke-width: 143.25;"><title>ALIAS → Merlin Pilot KC-135
Value: $300.00M
Source Funding: $300.00M
Target Funding: $145.00M</title></path><path class="link" d="M31,359.125C240.75,359.125,240.75,364.545,450.5,364.545" style="stroke-width: 143.25;"><title>ALIAS → Agile Flag
Value: $300.00M
Source Funding: $300.00M
Target Funding: $45.00M</title></path><path class="link" d="M31,215.875C465.5,215.875,465.5,225.875,900,225.875" style="stroke-width: 143.25;"><title>ALIAS → Merlin Pilot SOCOM
Value: $300.00M
Source Funding: $300.00M
Target Funding: $105.00M</title></path><path class="link" d="M480.5,303.664C690.25,303.664,690.25,318.244,900,318.244" style="stroke-width: 21.4875;"><title>Agile Flag → Cronus
Value: $45.00M
Source Funding: $45.00M
Target Funding: $30.00M</title></path><path class="link" d="M31,502.375C465.5,502.375,465.5,502.375,900,502.375" style="stroke-width: 143.25;"><title>ALIAS → Merlin Pilot C-130J
Value: $300.00M
Source Funding: $300.00M
Target Funding: $105.00M</title></path></g><g><g class="node" transform="translate(1,1.0000000000000258)"><rect class="in-bar" x="0" height="0" width="15" fill="#4e79a7" opacity="0.7"></rect><rect class="out-bar" x="15" height="573" width="15" fill="rgb(65, 101, 140)" opacity="0.7"></rect><text x="36" y="286.5" dy="0.35em" text-anchor="start">ALIAS</text><title>ALIAS
Total Funding In: $0.00M
Total Funding Out: $1200.00M
Target Funding: $0.00M</title></g><g class="node" transform="translate(900,1)"><rect class="in-bar" x="0" height="143.25000000000003" width="15" fill="#4e79a7" opacity="0.7"></rect><rect class="out-bar" x="15" height="0" width="15" fill="rgb(65, 101, 140)" opacity="0.7"></rect><rect class="out-bar-segment" x="15" y="74.01250000000002" height="69.23750000000001" width="15" fill="rgb(65, 101, 140)" opacity="0.7"></rect><text x="-6" y="71.62500000000001" dy="0.35em" text-anchor="end">Merlin Pilot KC-135</text><title>Merlin Pilot KC-135
Total Funding In: $300.00M
Total Funding Out: $0.00M
Target Funding: $145.00M</title></g><g class="node" transform="translate(450.5,292.91993958539365)"><rect class="in-bar" x="0" height="143.25" width="15" fill="#76b7b2" opacity="0.7"></rect><rect class="out-bar" x="15" height="21.4875" width="15" fill="rgb(99, 153, 149)" opacity="0.7"></rect><text x="36" y="71.625" dy="0.35em" text-anchor="start">Agile Flag</text><title>Agile Flag
Total Funding In: $300.00M
Total Funding Out: $45.00M
Target Funding: $45.00M</title></g><g class="node" transform="translate(900,154.25000000000003)"><rect class="in-bar" x="0" height="143.25000000000003" width="15" fill="#e15759" opacity="0.7"></rect><rect class="out-bar" x="15" height="0" width="15" fill="rgb(188, 73, 74)" opacity="0.7"></rect><rect class="out-bar-segment" x="15" y="93.11250000000001" height="50.13750000000001" width="15" fill="rgb(188, 73, 74)" opacity="0.7"></rect><text x="-6" y="71.62500000000001" dy="0.35em" text-anchor="end">Merlin Pilot SOCOM</text><title>Merlin Pilot SOCOM
Total Funding In: $300.00M
Total Funding Out: $0.00M
Target Funding: $105.00M</title></g><g class="node" transform="translate(900,307.50000000000006)"><rect class="in-bar" x="0" height="21.487499999999955" width="15" fill="#76b7b2" opacity="0.7"></rect><rect class="out-bar" x="15" height="0" width="15" fill="rgb(99, 153, 149)" opacity="0.7"></rect><rect class="out-bar-segment" x="15" y="7.162499999999985" height="14.324999999999969" width="15" fill="rgb(99, 153, 149)" opacity="0.7"></rect><text x="-6" y="10.743749999999977" dy="0.35em" text-anchor="end">Cronus</text><title>Cronus
Total Funding In: $45.00M
Total Funding Out: $0.00M
Target Funding: $30.00M</title></g><g class="node" transform="translate(900,430.75)"><rect class="in-bar" x="0" height="143.25" width="15" fill="#59a14f" opacity="0.7"></rect><rect class="out-bar" x="15" height="0" width="15" fill="rgb(74, 135, 66)" opacity="0.7"></rect><rect class="out-bar-segment" x="15" y="93.11250000000001" height="50.137499999999996" width="15" fill="rgb(74, 135, 66)" opacity="0.7"></rect><text x="-6" y="71.625" dy="0.35em" text-anchor="end">Merlin Pilot C-130J</text><title>Merlin Pilot C-130J
Total Funding In: $300.00M
Total Funding Out: $0.00M
Target Funding: $105.00M</title></g></g></g></svg>